<svg width="1085" height="301" viewBox="0 0 1085 301" fill="none" xmlns="http://www.w3.org/2000/svg">
<path d="M377.603 233.389C376.894 233.389 376.256 233.176 375.69 232.751C375.264 232.184 375.052 231.546 375.052 230.837V87.1185C375.052 86.4099 375.264 85.8429 375.69 85.4177C376.256 84.8508 376.894 84.5673 377.603 84.5673H416.084C428.982 84.5673 439.328 88.3233 447.124 95.8352C454.919 103.347 458.817 113.339 458.817 125.812V192.144C458.817 204.617 454.919 214.609 447.124 222.121C439.328 229.633 428.982 233.389 416.084 233.389H377.603ZM405.029 206.601C405.029 207.309 405.383 207.664 406.092 207.664L415.659 207.451C419.486 207.309 422.604 205.68 425.013 202.561C427.423 199.443 428.698 195.333 428.84 190.23V127.726C428.84 122.34 427.635 118.088 425.226 114.969C422.816 111.851 419.556 110.292 415.446 110.292H406.092C405.383 110.292 405.029 110.646 405.029 111.355V206.601ZM534.515 233.389C532.814 233.389 531.893 232.609 531.751 231.05L528.349 210.64C528.349 209.932 527.924 209.577 527.074 209.577H500.073C499.223 209.577 498.798 209.932 498.798 210.64L495.396 231.05C495.254 232.609 494.333 233.389 492.632 233.389H467.758C465.915 233.389 465.207 232.467 465.632 230.625L496.884 86.9059C497.168 85.3468 498.089 84.5673 499.648 84.5673H528.349C529.908 84.5673 530.83 85.3468 531.113 86.9059L562.153 230.625L562.366 231.475C562.366 232.751 561.586 233.389 560.027 233.389H534.515ZM503.05 185.341C503.05 186.049 503.333 186.404 503.9 186.404H523.034C523.743 186.404 524.026 186.049 523.885 185.341L513.892 127.3C513.751 126.875 513.538 126.662 513.255 126.662C512.971 126.662 512.759 126.875 512.617 127.3L503.05 185.341ZM644.606 84.5673C645.315 84.5673 645.882 84.8508 646.307 85.4177C646.874 85.8429 647.157 86.4099 647.157 87.1185V107.741C647.157 108.45 646.874 109.087 646.307 109.654C645.882 110.08 645.315 110.292 644.606 110.292H618.031C617.322 110.292 616.968 110.646 616.968 111.355V230.837C616.968 231.546 616.684 232.184 616.117 232.751C615.692 233.176 615.125 233.389 614.417 233.389H589.542C588.834 233.389 588.196 233.176 587.629 232.751C587.204 232.184 586.991 231.546 586.991 230.837V111.355C586.991 110.646 586.637 110.292 585.928 110.292H560.416C559.707 110.292 559.069 110.08 558.502 109.654C558.077 109.087 557.865 108.45 557.865 107.741V87.1185C557.865 86.4099 558.077 85.8429 558.502 85.4177C559.069 84.8508 559.707 84.5673 560.416 84.5673H644.606ZM712.444 233.389C710.744 233.389 709.822 232.609 709.681 231.05L706.279 210.64C706.279 209.932 705.854 209.577 705.003 209.577H678.003C677.152 209.577 676.727 209.932 676.727 210.64L673.326 231.05C673.184 232.609 672.263 233.389 670.562 233.389H645.687C643.845 233.389 643.136 232.467 643.561 230.625L674.814 86.9059C675.097 85.3468 676.019 84.5673 677.578 84.5673H706.279C707.838 84.5673 708.759 85.3468 709.043 86.9059L740.083 230.625L740.295 231.475C740.295 232.751 739.516 233.389 737.957 233.389H712.444ZM680.979 185.341C680.979 186.049 681.263 186.404 681.83 186.404H700.964C701.673 186.404 701.956 186.049 701.814 185.341L691.822 127.3C691.68 126.875 691.468 126.662 691.184 126.662C690.901 126.662 690.688 126.875 690.546 127.3L680.979 185.341ZM755.054 233.389C754.346 233.389 753.708 233.176 753.141 232.751C752.716 232.184 752.503 231.546 752.503 230.837V87.1185C752.503 86.4099 752.716 85.8429 753.141 85.4177C753.708 84.8508 754.346 84.5673 755.054 84.5673H779.929C780.638 84.5673 781.205 84.8508 781.63 85.4177C782.197 85.8429 782.48 86.4099 782.48 87.1185V206.601C782.48 207.309 782.834 207.664 783.543 207.664H828.19C828.898 207.664 829.465 207.947 829.89 208.514C830.457 208.939 830.741 209.506 830.741 210.215V230.837C830.741 231.546 830.457 232.184 829.89 232.751C829.465 233.176 828.898 233.389 828.19 233.389H755.054ZM909.06 233.389C907.359 233.389 906.438 232.609 906.296 231.05L902.894 210.64C902.894 209.932 902.469 209.577 901.619 209.577H874.618C873.768 209.577 873.343 209.932 873.343 210.64L869.941 231.05C869.799 232.609 868.878 233.389 867.177 233.389H842.303C840.46 233.389 839.751 232.467 840.177 230.625L871.429 86.9059C871.713 85.3468 872.634 84.5673 874.193 84.5673H902.894C904.453 84.5673 905.375 85.3468 905.658 86.9059L936.698 230.625L936.911 231.475C936.911 232.751 936.131 233.389 934.572 233.389H909.06ZM877.595 185.341C877.595 186.049 877.878 186.404 878.445 186.404H897.579C898.288 186.404 898.571 186.049 898.43 185.341L888.437 127.3C888.296 126.875 888.083 126.662 887.799 126.662C887.516 126.662 887.303 126.875 887.162 127.3L877.595 185.341ZM1034.58 192.356C1034.58 205.538 1030.62 215.672 1022.68 222.759C1014.74 229.845 1004.47 233.389 991.852 233.389H951.67C950.961 233.389 950.323 233.176 949.756 232.751C949.331 232.184 949.119 231.546 949.119 230.837V87.1185C949.119 86.4099 949.331 85.8429 949.756 85.4177C950.323 84.8508 950.961 84.5673 951.67 84.5673H987.174C1001.35 84.5673 1012.4 87.9689 1020.34 94.7722C1028.42 101.575 1032.46 111.709 1032.46 125.174C1032.46 139.206 1027.64 149.411 1018 155.789C1017.43 156.214 1017.36 156.639 1017.79 157.065C1028.99 165.002 1034.58 176.766 1034.58 192.356ZM980.158 110.292C979.45 110.292 979.095 110.646 979.095 111.355V144.734C979.095 145.442 979.45 145.797 980.158 145.797H987.812C992.631 145.797 996.387 144.308 999.08 141.332C1001.77 138.214 1003.12 133.891 1003.12 128.363C1003.12 122.552 1001.77 118.088 999.08 114.969C996.529 111.851 992.773 110.292 987.812 110.292H980.158ZM989.513 207.451C994.19 207.451 997.875 205.75 1000.57 202.349C1003.26 198.947 1004.61 194.128 1004.61 187.892C1004.61 181.656 1003.26 176.695 1000.57 173.01C997.875 169.325 994.261 167.482 989.725 167.482H980.158C979.45 167.482 979.095 167.836 979.095 168.545V206.388C979.095 207.097 979.45 207.451 980.158 207.451H989.513Z" fill="black"/>
<path d="M150.235 300.469H65.5991C65.808 291.082 66.2773 281.759 67.0001 272.506C71.784 271.894 75.4812 267.807 75.4812 262.856C75.4812 258.561 72.698 254.915 68.8365 253.625C70.9854 235.182 74.1444 217.046 78.2568 199.276C83.2903 198.904 87.2584 194.702 87.2584 189.573C87.2584 189.054 87.2177 188.545 87.1394 188.048C115.811 173.276 142.876 155.826 168.006 136.027C169.532 137.023 171.356 137.602 173.314 137.602C177.576 137.602 181.198 134.862 182.514 131.048C184.765 131.077 187.02 131.092 189.279 131.092C226.366 131.092 262.514 127.073 297.311 119.445C299.381 129.384 300.469 139.682 300.469 150.235C300.469 233.207 233.207 300.469 150.235 300.469Z" fill="#FFCC00"/>
<path d="M63.3552 253.423C65.5246 234.66 68.728 216.212 72.907 198.138C71.9916 197.643 71.1645 197.005 70.4554 196.255C47.8397 206.862 24.3037 215.833 0 223.015V300.469H60.1301C60.3432 290.793 60.8298 281.184 61.5827 271.65C58.2948 270.089 56.0215 266.738 56.0215 262.856C56.0215 258.309 59.1403 254.491 63.3552 253.423Z" fill="#FF0000"/>
<path d="M84.7956 183.103C113.027 168.545 139.684 151.361 164.443 131.873C164.238 131.421 164.067 130.95 163.933 130.464C145.835 129.564 127.988 127.707 110.444 124.941C108.895 128.261 105.527 130.562 101.621 130.562C100.937 130.562 100.27 130.491 99.6254 130.357C93.1177 146.944 87.4761 163.965 82.7565 181.366C83.5141 181.849 84.2002 182.435 84.7956 183.103Z" fill="#FF0000"/>
<path d="M111.265 119.535C128.569 122.264 146.169 124.099 164.017 124.993C165.244 121.025 168.943 118.142 173.314 118.142C175.434 118.142 177.395 118.82 178.993 119.97C190.994 109.77 202.503 99.0091 213.481 87.7287C212.601 86.2653 212.094 84.5513 212.094 82.7189C212.094 77.3453 216.45 72.9891 221.824 72.9891C223.432 72.9891 224.949 73.3791 226.285 74.0697C235.827 63.4997 244.922 52.5176 253.539 41.1532C232.041 20.7866 204.526 6.70732 173.938 1.85932C147.053 35.5077 124.45 72.7273 106.954 112.692C109.26 114.206 110.884 116.674 111.265 119.535Z" fill="#FF0000"/>
<path d="M182.361 124.283C182.528 124.703 182.666 125.137 182.773 125.583C184.939 125.611 187.107 125.625 189.279 125.625C225.949 125.625 261.691 121.652 296.098 114.113C289.558 87.6124 275.984 63.8825 257.471 45.0166C248.856 56.3452 239.771 67.2967 230.245 77.8422C231.077 79.276 231.554 80.9418 231.554 82.7189C231.554 88.0926 227.198 92.4488 221.824 92.4488C220.271 92.4488 218.803 92.085 217.501 91.438C206.319 102.934 194.592 113.896 182.361 124.283Z" fill="#FFCC00"/>
<path d="M77.5028 179.843C82.328 162.067 88.1049 144.681 94.7754 127.746C93.1793 126.165 92.1276 124.036 91.9266 121.664C60.1042 115.414 29.3594 106.159 0 94.206V217.31C23.4286 210.303 46.1308 201.613 67.9664 191.382C67.8562 190.796 67.7986 190.191 67.7986 189.573C67.7986 184.208 72.141 179.857 77.5028 179.843Z" fill="black"/>
<path d="M101.681 111.102C118.966 71.4767 141.214 34.5132 167.641 0.997558C161.931 0.338659 156.122 0 150.235 0H0V88.2956C29.6672 100.53 60.7786 109.975 93.0074 116.304C94.6367 113.211 97.8828 111.102 101.621 111.102L101.681 111.102Z" fill="black"/>
</svg>
